<svg width="32" height="32" viewBox="0 0 32 32" fill="none" xmlns="http://www.w3.org/2000/svg">
<path d="M30 22.356C30.016 26.5336 26.64 29.9312 22.4616 29.9472L9.63605 29.992C5.45845 30.008 2.06086 26.632 2.04486 22.4536L2.00006 9.644C1.98406 5.46641 5.36006 2.06881 9.53845 2.05281L22.364 2.00801C26.5416 1.99201 29.9392 5.36801 29.9552 9.5464L30 22.356ZM22.4184 16.2296C23.9272 16.2568 23.8296 18.3256 22.3912 18.328C21.1192 18.3304 19.7984 18.3304 18.4288 18.328C18.3824 18.328 18.3472 18.3632 18.3472 18.4096V27.6528C18.3472 27.7568 18.4344 27.8408 18.5408 27.8384C20.3256 27.7672 22.5336 28.0648 24.1704 27.4648C26.8392 26.4904 27.8896 24.1952 27.852 21.4664C27.8056 17.968 27.8056 14.3496 27.8576 10.608C27.8712 9.41841 27.7344 8.4416 27.4456 7.67441C26.5856 5.40081 24.528 4.17601 22.1352 4.19201C17.9248 4.22241 13.7544 4.22241 9.63125 4.19761C7.33605 4.18401 5.41205 5.52081 4.51446 7.6304C4.28006 8.184 4.16246 8.708 4.16246 9.1992C4.16806 13.192 4.16486 17.4792 4.15446 22.0608C4.15206 23.4992 4.52326 24.7024 5.27045 25.6712C5.98245 26.5936 6.87205 27.2184 7.93685 27.5456C8.64885 27.7664 9.68885 27.8592 11.0537 27.8264C12.8193 27.7856 14.5 27.7856 16.0992 27.8288C16.1592 27.8312 16.208 27.7824 16.208 27.7224L16.1728 18.4688C16.1728 18.3568 16.1152 18.3024 16.004 18.3104C15.6576 18.3352 15.3024 18.3544 14.9344 18.3728C13.2536 18.4576 13.12 16.1544 14.7296 16.2032C15.1856 16.2168 15.6272 16.2168 16.0504 16.2008C16.1544 16.1952 16.2336 16.108 16.2248 16.004C16.1592 15.0624 16.0968 14.0448 16.4128 13.1464C17.0104 11.452 18.1488 10.3736 19.824 9.9128C20.5632 9.708 21.508 9.6648 22.6568 9.7792C23.1672 9.8312 23.4424 10.112 23.484 10.6248L23.4976 10.78C23.5496 11.4544 23.2408 11.8224 22.5696 11.8856C22.196 11.9208 21.7976 11.9296 21.3744 11.9048C19.6664 11.8064 18.2856 13.0976 18.3424 14.8496C18.356 15.2536 18.3504 15.6544 18.3232 16.056C18.3176 16.1432 18.3856 16.2168 18.4736 16.2144C19.808 16.2008 21.1232 16.2032 22.42 16.228L22.4184 16.2296Z" fill="#ACB5BC"/>
</svg>
