<svg width="32" height="32" viewBox="0 0 32 32" fill="none" xmlns="http://www.w3.org/2000/svg">
<path d="M30 22.48C30.008 26.6296 26.6512 29.9968 22.5016 30.0048L9.54721 30.0272C5.39761 30.0352 2.03041 26.676 2.02241 22.5288L2.00001 9.5192C1.99201 5.3696 5.34881 2.0024 9.49841 1.9944L22.4528 1.972C26.6024 1.964 29.9696 5.3232 29.9776 9.4704L30 22.48ZM27.8496 9.6128C27.8496 6.6008 25.4072 4.1584 22.3952 4.1584H9.59921C6.58721 4.1584 4.14481 6.6008 4.14481 9.6128V22.4088C4.14481 25.4208 6.58721 27.8632 9.59921 27.8632H22.3952C25.4072 27.8632 27.8496 25.4208 27.8496 22.4088V9.6128Z" fill="#ACB5BC"/>
<path d="M21.7664 17.0808C20.2152 17.092 18.6016 17.0944 16.9304 17.092C15.4232 17.0896 15.396 14.92 17.0264 14.9232C18.9736 14.9256 21.0088 14.9256 23.132 14.9288C23.7144 14.9288 24.2096 15.3088 24.2176 15.9216C24.2392 17.6368 23.8376 19.1216 23.0112 20.3744C21.252 23.0472 18.7824 24.3408 15.6008 24.2528C11.8864 24.1512 8.5352 21.3176 7.92 17.7128C7.3864 14.5864 8.2016 12.0016 10.3712 9.9608C13.3472 7.1568 17.9976 7.0424 21.176 9.5864C21.5672 9.8984 21.712 10.3 21.616 10.7896C21.4488 11.6376 20.4752 11.7472 19.8656 11.304C17.532 9.608 15.2152 9.4384 12.9208 10.7928C10.0544 12.4832 9.0472 16.0856 10.6912 19.0128C13.416 23.8624 20.7792 22.744 21.928 17.2816C21.9584 17.1472 21.9032 17.0816 21.7664 17.0816V17.0808Z" fill="#ACB5BC"/>
</svg>
