<svg width="32" height="32" viewBox="0 0 32 32" fill="none" xmlns="http://www.w3.org/2000/svg">
<path d="M29.9776 22.468C29.9696 26.6304 26.592 29.9968 22.4304 29.9888L9.52082 29.9664C5.35842 29.9584 1.99201 26.5808 2.00001 22.4192L2.02241 9.532C2.03041 5.3696 5.40802 2.0032 9.56962 2.0112L22.4792 2.0336C26.6416 2.0416 30.008 5.4192 30 9.5808L29.9776 22.468ZM27.8544 9.6536C27.86 6.6376 25.4192 4.1896 22.404 4.184L9.62082 4.1616C6.60482 4.156 4.15681 6.5968 4.15121 9.612L4.12881 22.3304C4.12321 25.3464 6.56402 27.7944 9.57922 27.8L22.3632 27.8224C25.3792 27.828 27.8272 25.3872 27.8328 22.372L27.8552 9.6536H27.8544Z" fill="#ACB5BC"/>
<path d="M23.0695 10.4552C23.9372 10.4552 24.6407 9.75175 24.6407 8.884C24.6407 8.01626 23.9372 7.31281 23.0695 7.31281C22.2017 7.31281 21.4983 8.01626 21.4983 8.884C21.4983 9.75175 22.2017 10.4552 23.0695 10.4552Z" fill="#ACB5BC"/>
<path d="M22.2168 15.9784C22.2168 19.4296 19.4216 22.2256 15.9696 22.2256C12.5176 22.2256 9.72241 19.4304 9.72241 15.9784C9.72241 12.5264 12.5176 9.7312 15.9696 9.7312C19.4216 9.7312 22.2168 12.5264 22.2168 15.9784ZM20.0472 15.9728C20.0472 13.7208 18.2216 11.8952 15.9696 11.8952C13.7176 11.8952 11.892 13.7208 11.892 15.9728C11.892 18.2248 13.7176 20.0504 15.9696 20.0504C18.2216 20.0504 20.0472 18.2248 20.0472 15.9728Z" fill="#ACB5BC"/>
</svg>
