<svg width="32" height="32" viewBox="0 0 32 32" fill="none" xmlns="http://www.w3.org/2000/svg">
<path d="M29.9976 22.3992C30.0056 26.5752 26.6296 29.9648 22.4552 29.9728L9.58878 29.9952C5.41517 30.0032 2.02797 26.6248 2.01997 22.448L1.99757 9.59119C1.98957 5.41519 5.36557 2.02559 9.53998 2.01759L22.4064 1.99519C26.58 1.98719 29.9672 5.36559 29.9752 9.54239L29.9976 22.3992ZM27.8448 9.65039C27.8504 6.63679 25.4104 4.18799 22.3992 4.18239L9.62078 4.15999C6.60877 4.15439 4.16157 6.59519 4.15597 9.60879L4.13357 22.3344C4.12797 25.348 6.56797 27.7968 9.57917 27.8024L22.3576 27.8248C25.3696 27.8304 27.8168 25.3896 27.8224 22.376L27.8448 9.65039Z" fill="#ACB5BC"/>
<path d="M10.4169 11.7616C11.1967 11.7616 11.8289 11.1291 11.8289 10.3488C11.8289 9.56852 11.1967 8.93599 10.4169 8.93599C9.63706 8.93599 9.00488 9.56852 9.00488 10.3488C9.00488 11.1291 9.63706 11.7616 10.4169 11.7616Z" fill="#ACB5BC"/>
<path d="M9.33136 14.6538L9.31771 22.4722C9.31672 23.0408 9.77688 23.5026 10.3455 23.5036L10.4119 23.5037C10.9805 23.5047 11.4423 23.0445 11.4433 22.4759L11.457 14.6575C11.4579 14.0888 10.9978 13.6271 10.4292 13.6261L10.3628 13.626C9.79412 13.625 9.33235 14.0851 9.33136 14.6538Z" fill="#ACB5BC"/>
<path d="M20.6664 14.0464C21.628 14.484 22.3328 15.2432 22.7808 16.3288C23.0432 16.96 23.1552 17.7744 23.1168 18.772C23.0728 19.9912 23.076 21.1416 23.1248 22.2272C23.16 23.0032 22.8024 23.416 22.0512 23.4624H22.0072C21.3048 23.4488 20.9504 23.0856 20.9416 22.3664C20.928 20.9912 20.936 19.6 20.9664 18.1896C20.9776 17.6432 20.8624 17.1728 20.6192 16.7792C20.2448 16.1752 19.696 15.8448 18.972 15.784C18.3848 15.7344 17.8632 15.9016 17.4096 16.2872C17.128 16.5248 16.9232 16.8144 16.792 17.1616C16.6744 17.468 16.6168 17.804 16.62 18.1672C16.628 19.52 16.636 20.9336 16.6392 22.4064C16.6416 23.1112 16.276 23.472 15.5464 23.4912C15.5328 23.4912 15.516 23.4912 15.5024 23.4888C14.7728 23.4096 14.4176 23.0024 14.4424 22.2672C14.4752 21.2344 14.4728 20.152 14.4344 19.0232C14.3936 17.8288 14.5216 16.8968 14.8192 16.2272C15.3272 15.0872 16.1464 14.3168 17.2808 13.9176C18.4416 13.508 19.5696 13.5512 20.6656 14.0464H20.6664Z" fill="#ACB5BC"/>
</svg>
