<svg width="32" height="32" viewBox="0 0 32 32" fill="none" xmlns="http://www.w3.org/2000/svg">
<path d="M12.2721 9.9808C12.3353 10.0136 12.4113 9.9808 12.4305 9.9128C13.5953 5.7416 16.3481 3.776 20.6913 4.016C22.5913 4.12 24.1737 4.888 25.4425 6.3232C25.5713 6.468 25.7545 6.5504 25.9481 6.5504L28.9577 6.548C29.7889 6.548 30.2833 7.472 29.8241 8.1632C28.4569 10.2136 27.7217 11.3232 27.6209 11.4904C27.4921 11.7008 27.4185 11.9304 27.4049 12.1736C27.2873 14.1968 27.0249 16.1288 26.3825 18.0976C24.7585 23.0808 20.8553 26.6072 15.7841 27.6656C10.1665 28.8352 5.38248 27.4056 2.28248 22.5048C1.75768 21.6736 1.96248 21.072 2.90008 20.7008C3.50408 20.46 4.13608 20.2632 4.79448 20.1104C4.93928 20.0776 5.00488 19.9056 4.91448 19.7848C3.34248 17.6552 2.49768 15.3208 2.38008 12.7784C2.24328 9.8728 2.90248 7.2864 4.35928 5.02C4.52088 4.7688 4.69848 4.528 4.88648 4.2984C5.39768 3.6808 6.26408 3.9536 6.62808 4.5824C7.98648 6.9304 9.86728 8.7296 12.2705 9.9816L12.2721 9.9808ZM7.84328 19.9208C8.27528 20.4208 8.08088 21.1976 7.46328 21.4352C6.72808 21.7168 5.96248 21.9624 5.17288 22.1736C4.93528 22.2368 4.89128 22.368 5.04168 22.5616C7.80248 26.1232 12.3105 26.4792 16.4057 25.2648C22.3729 23.4992 25.2329 17.824 25.2241 11.848C25.2241 11.4848 25.3281 11.0304 25.5305 10.7248C25.9265 10.1264 26.3561 9.5032 26.8153 8.8496C26.8729 8.7672 26.8129 8.6584 26.7113 8.6584L25.0193 8.6888C24.6801 8.6944 24.3601 8.5328 24.1633 8.2568C23.3457 7.1224 22.4057 6.3952 20.9569 6.2008C17.3649 5.7168 14.6561 7.7864 14.4809 11.4736C14.4265 12.5944 13.4585 12.7256 12.5977 12.4192C9.83368 11.4352 7.49928 9.612 5.79128 7.2336C5.72568 7.1432 5.58888 7.1568 5.54248 7.2584C4.63768 9.2568 4.32888 11.364 4.61608 13.5816C4.94168 16.064 6.18488 17.9992 7.84488 19.9208H7.84328Z" fill="#ACB5BC"/>
</svg>
