<svg width="32" height="32" viewBox="0 0 32 32" fill="none" xmlns="http://www.w3.org/2000/svg">
<path d="M24.76 4.71839C28.2024 4.99919 29.4168 7.09999 29.7144 10.2864C30.1192 14.6056 30.092 18.6464 29.6376 22.4064C29.3392 24.8704 28.0208 26.892 25.4648 27.1776C22.0944 27.5552 17.932 27.6944 12.9776 27.5952C11.1944 27.5576 9.33923 27.4584 7.41442 27.2944C4.93362 27.0832 3.20722 26.1368 2.59602 23.6928C2.35042 22.7072 2.19362 21.6144 2.12642 20.4144C1.92562 16.9152 1.96242 13.5376 2.23842 10.2816C2.45922 7.64639 3.48242 5.24479 6.41602 4.84479C7.45202 4.70319 8.48723 4.60639 9.52323 4.55199C14.8608 4.26879 19.9392 4.32319 24.76 4.71839ZM27.7856 10.376C27.6392 8.71199 27.0528 6.91919 25.096 6.73999C19.5624 6.23119 13.9048 6.18879 8.12562 6.61839C5.94962 6.77759 4.59922 7.18239 4.30562 9.5888C3.79362 13.7888 3.79122 18.0776 4.30082 22.4616C4.50722 24.2272 5.49282 25.1784 7.26402 25.32C12.9712 25.7696 18.3976 25.8016 23.544 25.4216C24.7784 25.3296 25.5952 25.1952 25.9952 25.0168C26.7928 24.6568 27.2992 24.0312 27.5128 23.1392C27.724 22.2528 27.8656 21.1104 27.9376 19.7072C28.0992 16.4888 28.0472 13.3792 27.7864 10.376H27.7856Z" fill="#ACB5BC"/>
<path d="M13.872 11.2376L20.6896 15.1688C21.3304 15.5392 21.3304 16.4624 20.6896 16.8328L13.872 20.764C13.2312 21.1344 12.4312 20.6696 12.4312 19.932V12.0688C12.4312 11.3312 13.2312 10.8664 13.872 11.2368V11.2376ZM14.508 13.9176C14.4384 13.88 14.3544 13.9304 14.3544 14.0096L14.3672 18.0056C14.3696 18.0872 14.4544 18.1376 14.524 18.0976L18.0632 16.0856C18.1328 16.0456 18.1328 15.944 18.0632 15.904L14.5088 13.9168L14.508 13.9176Z" fill="#ACB5BC"/>
</svg>
